<?xml version="1.0" encoding="UTF-8" standalone="no"?>
<!DOCTYPE svg PUBLIC "-//W3C//DTD SVG 1.1//EN"
 "http://www.w3.org/Graphics/SVG/1.1/DTD/svg11.dtd">
<!-- Generated by graphviz version 2.43.0 (0)
 -->
<!-- Title: %3 Pages: 1 -->
<svg width="134pt" height="218pt"
 viewBox="0.00 0.00 134.00 218.00" xmlns="http://www.w3.org/2000/svg" xmlns:xlink="http://www.w3.org/1999/xlink">
<g id="graph0" class="graph" transform="scale(1 1) rotate(0) translate(4 214)">
<title>%3</title>
<polygon fill="white" stroke="transparent" points="-4,4 -4,-214 130,-214 130,4 -4,4"/>
<!-- v0 -->
<g id="node1" class="node">
<title>v0</title>
<ellipse fill="none" stroke="black" cx="92" cy="-192" rx="27" ry="18"/>
<text text-anchor="middle" x="92" y="-188.3" font-family="Times,serif" font-size="14.00">v0</text>
</g>
<!-- v1 -->
<g id="node2" class="node">
<title>v1</title>
<ellipse fill="none" stroke="black" cx="61" cy="-105" rx="27" ry="18"/>
<text text-anchor="middle" x="61" y="-101.3" font-family="Times,serif" font-size="14.00">v1</text>
</g>
<!-- v0&#45;&gt;v1 -->
<g id="edge1" class="edge">
<title>v0&#45;&gt;v1</title>
<path fill="none" stroke="black" d="M85.88,-174.21C81.5,-162.22 75.53,-145.85 70.54,-132.16"/>
<polygon fill="black" stroke="black" points="73.83,-130.95 67.11,-122.76 67.25,-133.35 73.83,-130.95"/>
<text text-anchor="middle" x="83" y="-144.8" font-family="Times,serif" font-size="14.00">1</text>
</g>
<!-- v2 -->
<g id="node3" class="node">
<title>v2</title>
<ellipse fill="none" stroke="black" cx="99" cy="-18" rx="27" ry="18"/>
<text text-anchor="middle" x="99" y="-14.3" font-family="Times,serif" font-size="14.00">v2</text>
</g>
<!-- v0&#45;&gt;v2 -->
<g id="edge2" class="edge">
<title>v0&#45;&gt;v2</title>
<path fill="none" stroke="black" d="M93.51,-173.97C94.67,-160.22 96.19,-140.38 97,-123 98.2,-97.04 98.69,-67.4 98.88,-46.42"/>
<polygon fill="black" stroke="black" points="102.38,-46.33 98.95,-36.31 95.38,-46.28 102.38,-46.33"/>
<text text-anchor="middle" x="103" y="-101.3" font-family="Times,serif" font-size="14.00">1</text>
</g>
<!-- v1&#45;&gt;v2 -->
<g id="edge3" class="edge">
<title>v1&#45;&gt;v2</title>
<path fill="none" stroke="black" d="M68.33,-87.61C73.74,-75.5 81.22,-58.77 87.44,-44.86"/>
<polygon fill="black" stroke="black" points="90.81,-45.9 91.7,-35.34 84.42,-43.04 90.81,-45.9"/>
<text text-anchor="middle" x="87" y="-57.8" font-family="Times,serif" font-size="14.00">3</text>
</g>
<!-- v3 -->
<g id="node4" class="node">
<title>v3</title>
<ellipse fill="none" stroke="black" cx="27" cy="-18" rx="27" ry="18"/>
<text text-anchor="middle" x="27" y="-14.3" font-family="Times,serif" font-size="14.00">v3</text>
</g>
<!-- v1&#45;&gt;v3 -->
<g id="edge4" class="edge">
<title>v1&#45;&gt;v3</title>
<path fill="none" stroke="black" d="M45.53,-90.1C39.96,-84.18 34.26,-76.83 31,-69 28.09,-62 26.7,-53.99 26.12,-46.46"/>
<polygon fill="black" stroke="black" points="29.62,-46.16 25.79,-36.28 22.62,-46.39 29.62,-46.16"/>
<text text-anchor="middle" x="36" y="-57.8" font-family="Times,serif" font-size="14.00">4</text>
</g>
<!-- v2&#45;&gt;v1 -->
<g id="edge5" class="edge">
<title>v2&#45;&gt;v1</title>
<path fill="none" stroke="black" d="M81.04,-31.62C74.1,-37.55 66.91,-45.24 63,-54 59.92,-60.9 58.7,-68.89 58.44,-76.42"/>
<polygon fill="black" stroke="black" points="54.94,-76.67 58.6,-86.62 61.94,-76.56 54.94,-76.67"/>
<text text-anchor="middle" x="68" y="-57.8" font-family="Times,serif" font-size="14.00">2</text>
</g>
</g>
</svg>