<?xml version="1.0" encoding="UTF-8" standalone="no"?>
<!DOCTYPE svg PUBLIC "-//W3C//DTD SVG 1.1//EN"
 "http://www.w3.org/Graphics/SVG/1.1/DTD/svg11.dtd">
<!-- Generated by graphviz version 2.43.0 (0)
 -->
<!-- Title: %3 Pages: 1 -->
<svg width="163pt" height="305pt"
 viewBox="0.00 0.00 163.00 305.00" xmlns="http://www.w3.org/2000/svg" xmlns:xlink="http://www.w3.org/1999/xlink">
<g id="graph0" class="graph" transform="scale(1 1) rotate(0) translate(4 301)">
<title>%3</title>
<polygon fill="white" stroke="transparent" points="-4,4 -4,-301 159,-301 159,4 -4,4"/>
<!-- v0 -->
<g id="node1" class="node">
<title>v0</title>
<ellipse fill="none" stroke="black" cx="90" cy="-279" rx="27" ry="18"/>
<text text-anchor="middle" x="90" y="-275.3" font-family="Times,serif" font-size="14.00">v0</text>
</g>
<!-- v1 -->
<g id="node2" class="node">
<title>v1</title>
<ellipse fill="none" stroke="black" cx="27" cy="-192" rx="27" ry="18"/>
<text text-anchor="middle" x="27" y="-188.3" font-family="Times,serif" font-size="14.00">v1</text>
</g>
<!-- v0&#45;&gt;v1 -->
<g id="edge1" class="edge">
<title>v0&#45;&gt;v1</title>
<path fill="none" stroke="black" d="M66.45,-269.78C54.09,-264.2 39.92,-255.53 32,-243 27.77,-236.31 25.91,-228.08 25.27,-220.24"/>
<polygon fill="black" stroke="black" points="28.77,-219.9 25.05,-209.98 21.77,-220.05 28.77,-219.9"/>
<text text-anchor="middle" x="37" y="-231.8" font-family="Times,serif" font-size="14.00">1</text>
</g>
<!-- v3 -->
<g id="node4" class="node">
<title>v3</title>
<ellipse fill="none" stroke="black" cx="70" cy="-105" rx="27" ry="18"/>
<text text-anchor="middle" x="70" y="-101.3" font-family="Times,serif" font-size="14.00">v3</text>
</g>
<!-- v0&#45;&gt;v3 -->
<g id="edge2" class="edge">
<title>v0&#45;&gt;v3</title>
<path fill="none" stroke="black" d="M88.01,-260.88C84.54,-231 77.34,-169.11 73.17,-133.27"/>
<polygon fill="black" stroke="black" points="76.61,-132.58 71.98,-123.05 69.66,-133.39 76.61,-132.58"/>
<text text-anchor="middle" x="86" y="-188.3" font-family="Times,serif" font-size="14.00">1</text>
</g>
<!-- v4 -->
<g id="node5" class="node">
<title>v4</title>
<ellipse fill="none" stroke="black" cx="128" cy="-18" rx="27" ry="18"/>
<text text-anchor="middle" x="128" y="-14.3" font-family="Times,serif" font-size="14.00">v4</text>
</g>
<!-- v0&#45;&gt;v4 -->
<g id="edge3" class="edge">
<title>v0&#45;&gt;v4</title>
<path fill="none" stroke="black" d="M94.22,-260.97C95.54,-255.28 96.94,-248.89 98,-243 110.75,-172.5 120.58,-88.6 125.16,-46.29"/>
<polygon fill="black" stroke="black" points="128.65,-46.54 126.24,-36.23 121.69,-45.8 128.65,-46.54"/>
<text text-anchor="middle" x="118" y="-144.8" font-family="Times,serif" font-size="14.00">5</text>
</g>
<!-- v1&#45;&gt;v0 -->
<g id="edge4" class="edge">
<title>v1&#45;&gt;v0</title>
<path fill="none" stroke="black" d="M38.48,-208.49C47.96,-221.28 61.58,-239.65 72.43,-254.29"/>
<polygon fill="black" stroke="black" points="69.68,-256.46 78.44,-262.41 75.3,-252.29 69.68,-256.46"/>
<text text-anchor="middle" x="67" y="-231.8" font-family="Times,serif" font-size="14.00">9</text>
</g>
<!-- v2 -->
<g id="node3" class="node">
<title>v2</title>
<ellipse fill="none" stroke="black" cx="37" cy="-18" rx="27" ry="18"/>
<text text-anchor="middle" x="37" y="-14.3" font-family="Times,serif" font-size="14.00">v2</text>
</g>
<!-- v1&#45;&gt;v2 -->
<g id="edge5" class="edge">
<title>v1&#45;&gt;v2</title>
<path fill="none" stroke="black" d="M25.4,-173.68C23.75,-153.01 21.71,-117.44 24,-87 25.11,-72.21 26.23,-68.57 29,-54 29.51,-51.34 30.07,-48.57 30.66,-45.81"/>
<polygon fill="black" stroke="black" points="34.08,-46.56 32.84,-36.04 27.25,-45.03 34.08,-46.56"/>
<text text-anchor="middle" x="29" y="-101.3" font-family="Times,serif" font-size="14.00">3</text>
</g>
<!-- v1&#45;&gt;v3 -->
<g id="edge6" class="edge">
<title>v1&#45;&gt;v3</title>
<path fill="none" stroke="black" d="M35.29,-174.61C41.48,-162.38 50.05,-145.44 57.12,-131.46"/>
<polygon fill="black" stroke="black" points="60.34,-132.84 61.73,-122.34 54.1,-129.68 60.34,-132.84"/>
<text text-anchor="middle" x="56" y="-144.8" font-family="Times,serif" font-size="14.00">2</text>
</g>
<!-- v2&#45;&gt;v3 -->
<g id="edge7" class="edge">
<title>v2&#45;&gt;v3</title>
<path fill="none" stroke="black" d="M43.51,-35.76C48.16,-47.74 54.51,-64.1 59.83,-77.8"/>
<polygon fill="black" stroke="black" points="56.6,-79.15 63.48,-87.21 63.12,-76.62 56.6,-79.15"/>
<text text-anchor="middle" x="60" y="-57.8" font-family="Times,serif" font-size="14.00">4</text>
</g>
<!-- v3&#45;&gt;v2 -->
<g id="edge8" class="edge">
<title>v3&#45;&gt;v2</title>
<path fill="none" stroke="black" d="M53,-90.84C46.72,-84.92 40.33,-77.38 37,-69 34.21,-61.98 33.32,-53.96 33.36,-46.42"/>
<polygon fill="black" stroke="black" points="36.86,-46.43 33.92,-36.25 29.87,-46.04 36.86,-46.43"/>
<text text-anchor="middle" x="42" y="-57.8" font-family="Times,serif" font-size="14.00">2</text>
</g>
<!-- v3&#45;&gt;v4 -->
<g id="edge9" class="edge">
<title>v3&#45;&gt;v4</title>
<path fill="none" stroke="black" d="M80.7,-88.23C87.39,-78.38 96.19,-65.44 104,-54 106.43,-50.44 109,-46.68 111.53,-43"/>
<polygon fill="black" stroke="black" points="114.47,-44.9 117.23,-34.67 108.69,-40.94 114.47,-44.9"/>
<text text-anchor="middle" x="109" y="-57.8" font-family="Times,serif" font-size="14.00">3</text>
</g>
<!-- v4&#45;&gt;v0 -->
<g id="edge10" class="edge">
<title>v4&#45;&gt;v0</title>
<path fill="none" stroke="black" d="M133.27,-35.92C134.79,-41.61 136.24,-48.02 137,-54 137.84,-60.61 137.31,-62.34 137,-69 134.09,-132.05 130.87,-147.82 120,-210 117.42,-224.77 118.77,-229.16 113,-243 111.44,-246.74 109.47,-250.52 107.33,-254.13"/>
<polygon fill="black" stroke="black" points="104.31,-252.37 101.86,-262.67 110.2,-256.14 104.31,-252.37"/>
<text text-anchor="middle" x="136" y="-144.8" font-family="Times,serif" font-size="14.00">3</text>
</g>
</g>
</svg>
